<?xml version="1.0" encoding="utf-8"?>
<svg version="1.1" id="img" xmlns="http://www.w3.org/2000/svg" xmlns:xlink="http://www.w3.org/1999/xlink" x="0px" y="0px"
	 viewBox="0 0 603 324" style="enable-background:new 0 0 603 324;" xml:space="preserve">
<style type="text/css">
	.st0{fill:#000;fill-rule:evenodd;clip-rule:evenodd;}
</style>
<desc>Created with Sketch.</desc>
<g id="Press-kit">
	<g id="Artboard" transform="translate(-451.000000, -697.000000)">
		<g id="Taxify_logo" transform="translate(451.000000, 696.000000)">
			<path id="Fill-1" class="st0" d="M13.2,196.6H0v-22.9h13.2v-40.5h25.2v40.5h23.3v22.9H38.4v47.2c0,11.5,4,15.8,13.2,15.8
				c3.1,0,6.1-0.2,8.8-0.8v22.5c-3.6,0.8-8,1.3-13,1.3c-22.9,0-34.2-12-34.2-35.9L13.2,196.6L13.2,196.6z"/>
			<path id="Fill-3" class="st0" d="M146.1,249.8c6.3-6.1,9.4-13.9,9.4-23.1c0-9.2-3.1-17-9.4-23.1c-6.1-6.1-13.9-9.2-22.9-9.2
				s-16.4,3.2-22.5,9.2c-5.9,6.1-8.8,13.9-8.8,23.1c0,9.2,2.9,17,8.8,23.1c6.1,6.1,13.4,9.2,22.5,9.2
				C132.2,259,140,255.8,146.1,249.8 M153.7,189.1v-15.3h25.2v73.9c0,9,2.1,12.4,7.8,12.4c1.5,0,3.4-0.2,5.2-0.4V280
				c-2.7,1.1-6.9,1.7-12.4,1.7c-6.1,0-10.9-1-14.7-3.4c-4.6-3.1-7.6-7.3-8.6-12.8c-7.3,11.1-19.5,16.6-36.3,16.6
				c-14.9,0-27.5-5.2-37.8-16C72,255.4,67,242.4,67,226.6s5-28.8,15.1-39.3c10.3-10.7,22.9-16,37.8-16
				C136.9,171.4,149.7,179,153.7,189.1"/>
			<polygon id="Fill-5" class="st0" points="198.6,279.6 238.7,223.7 202.2,173.7 229.5,173.7 252.6,205.5 275.5,173.7 303,173.7 
				266.5,223.5 306.6,279.6 279.5,279.6 252.6,242.2 225.7,279.6 			"/>
			<path id="Fill-7" class="st0" d="M314.5,173.7h25.2V248c0,8.2,1.7,11.1,7.4,11.1c1.9,0,3.4-0.2,4.4-0.4V280
				c-2.5,1.1-6.7,1.7-12.6,1.7c-16.2,0-24.4-9-24.4-26.9V173.7z M312,146.5c0-8.4,6.7-14.9,15.1-14.9c8.2,0,14.9,6.5,14.9,14.9
				s-6.7,14.9-14.9,14.9C318.7,161.4,312,154.8,312,146.5L312,146.5z"/>
			<path id="Fill-9" class="st0" d="M372.5,279.6v-82.9h-17.2v-22.9h17.2v-5.2c0-16.2,3.4-24.8,11.5-31.3c5.7-4.6,14.3-6.9,26.2-6.9
				c4.2,0,7.8,0.2,10.9,0.8v21.6c-1.9-0.6-5.2-1.1-9.7-1.1c-9.4,0-13.9,4.2-13.9,14.9v7.1h19.9v22.9h-19.9v82.9L372.5,279.6
				L372.5,279.6z"/>
			<path id="Fill-11" class="st0" d="M439.3,300.8c3.2,1.1,7.1,1.7,11.8,1.7c4,0,6.9-0.8,9.2-2.3c2.3-1.5,4.4-4.6,6.1-9l2.7-7.6
				l-44.3-109.8h25.4l31.1,79.8l29.2-79.8h25.4l-47.5,123c-3.2,8.2-6.9,14.5-11.3,18.9c-6.3,5.9-14.7,8.8-25.4,8.8
				c-4.6,0-8.8-0.6-12.4-1.7L439.3,300.8L439.3,300.8z"/>
			<g id="Group-15" transform="translate(480.000000, 0.492000)">
				<g id="Clip-14">
				</g>
				<path id="Fill-13" class="st0" d="M61.6,12.4c-26.9,0-48.8,21.8-48.8,48.8c0,26.9,21.8,48.8,48.8,48.8s48.8-21.9,48.8-48.8
					C110.4,34.3,88.5,12.4,61.6,12.4 M122.7,61.6c0,32.6-20.6,49-61.1,88.6v-27.5c-33.8,0-61.1-27.4-61.1-61.1
					c0-33.8,27.4-61.1,61.1-61.1S122.7,27.9,122.7,61.6"/>
			</g>
			<g id="Clip-17">
			</g>
			<polygon id="Fill-16" class="st0" points="510.1,77.5 531.1,77.5 531.1,56.5 510.1,56.5 			"/>
			<polygon id="Fill-18" class="st0" points="531.1,56.5 552.1,56.5 552.1,35.5 531.1,35.5 			"/>
			<polygon id="Fill-19" class="st0" points="552.1,77.5 573,77.5 573,56.5 552.1,56.5 			"/>
		</g>
	</g>
</g>
</svg>
