<svg id="img" xmlns="http://www.w3.org/2000/svg" viewBox="0 0 603 324"><defs><style>.cls-1{fill:#fff;fill-rule:evenodd;}</style></defs><g id="Press-kit"><g id="Artboard"><g id="Taxify_logo" data-name="Taxify logo"><path id="Fill-1" class="cls-1" d="M13.2,195.6H0V172.7H13.2V132.2H38.4v40.5H61.7v22.9H38.4v47.2c0,11.5,4,15.8,13.2,15.8a41.15,41.15,0,0,0,8.8-.8v22.5a60.66,60.66,0,0,1-13,1.3c-22.9,0-34.2-12-34.2-35.9V195.6Z"/><path id="Fill-3" class="cls-1" d="M146.1,248.8c6.3-6.1,9.4-13.9,9.4-23.1s-3.1-17-9.4-23.1a31.37,31.37,0,0,0-22.9-9.2,30.86,30.86,0,0,0-22.5,9.2c-5.9,6.1-8.8,13.9-8.8,23.1s2.9,17,8.8,23.1a30.31,30.31,0,0,0,22.5,9.2,31.78,31.78,0,0,0,22.9-9.2m7.6-60.7V172.8h25.2v73.9c0,9,2.1,12.4,7.8,12.4a51.33,51.33,0,0,0,5.2-.4V279c-2.7,1.1-6.9,1.7-12.4,1.7-6.1,0-10.9-1-14.7-3.4a19.13,19.13,0,0,1-8.6-12.8c-7.3,11.1-19.5,16.6-36.3,16.6-14.9,0-27.5-5.2-37.8-16C72,254.4,67,241.4,67,225.6s5-28.8,15.1-39.3c10.3-10.7,22.9-16,37.8-16,17,.1,29.8,7.7,33.8,17.8"/><polygon id="Fill-5" class="cls-1" points="198.6 278.6 238.7 222.7 202.2 172.7 229.5 172.7 252.6 204.5 275.5 172.7 303 172.7 266.5 222.5 306.6 278.6 279.5 278.6 252.6 241.2 225.7 278.6 198.6 278.6"/><path id="Fill-7" class="cls-1" d="M314.5,172.7h25.2V247c0,8.2,1.7,11.1,7.4,11.1a22.72,22.72,0,0,0,4.4-.4V279c-2.5,1.1-6.7,1.7-12.6,1.7-16.2,0-24.4-9-24.4-26.9ZM312,145.5a15,15,0,1,1,15.1,14.9A14.86,14.86,0,0,1,312,145.5Z"/><path id="Fill-9" class="cls-1" d="M372.5,278.6V195.7H355.3V172.8h17.2v-5.2c0-16.2,3.4-24.8,11.5-31.3,5.7-4.6,14.3-6.9,26.2-6.9a58.47,58.47,0,0,1,10.9.8v21.6a34.57,34.57,0,0,0-9.7-1.1c-9.4,0-13.9,4.2-13.9,14.9v7.1h19.9v22.9H397.5v82.9l-25,.1Z"/><path id="Fill-11" class="cls-1" d="M439.3,299.8a36.36,36.36,0,0,0,11.8,1.7c4,0,6.9-.8,9.2-2.3s4.4-4.6,6.1-9l2.7-7.6L424.8,172.8h25.4l31.1,79.8,29.2-79.8h25.4l-47.5,123c-3.2,8.2-6.9,14.5-11.3,18.9-6.3,5.9-14.7,8.8-25.4,8.8a42.73,42.73,0,0,1-12.4-1.7v-22Z"/><g id="Group-15"><path id="Fill-13" class="cls-1" d="M541.6,11.89a48.8,48.8,0,1,0,48.8,48.8,48.8,48.8,0,0,0-48.8-48.8m61.1,49.2c0,32.6-20.6,49-61.1,88.6v-27.5a61.1,61.1,0,1,1,61.1-61.1"/></g><polygon id="Fill-16" class="cls-1" points="510.1 76.5 531.1 76.5 531.1 55.5 510.1 55.5 510.1 76.5"/><polygon id="Fill-18" class="cls-1" points="531.1 55.5 552.1 55.5 552.1 34.5 531.1 34.5 531.1 55.5"/><polygon id="Fill-19" class="cls-1" points="552.1 76.5 573 76.5 573 55.5 552.1 55.5 552.1 76.5"/></g></g></g></svg>